<svg xmlns="http://www.w3.org/2000/svg" width="46.688" height="42.78" viewBox="0 0 46.688 42.78">
  <defs>
    <style>
      .cls-1 {
        fill: red;
        fill-rule: evenodd;
        stroke: green;
      }
      .cls-2 {
        fill: blue;
        fill-rule: evenodd;
      }
    </style>
  </defs>
  <path id="cart" class="cls-1" d="M637.064,1913.01a2.671,2.671,0,0,0-2.092-1.02H607.855a2.662,2.662,0,0,0-2.538,3.48l4.991,15.61a1.664,1.664,0,0,0,1.579,1.15h20.3a1.663,1.663,0,0,0,1.612-1.27l3.761-15.68A2.666,2.666,0,0,0,637.064,1913.01Zm-0.641,22.17H610.236a2.123,2.123,0,0,1-2.029-1.47L601,1911.35a5.077,5.077,0,0,0-4.845-3.53h-1.576a2.43,2.43,0,0,0,0,4.86h1.576a0.243,0.243,0,0,1,.225.16l7.208,22.36a6.974,6.974,0,0,0,6.65,4.84h26.187A2.43,2.43,0,0,0,636.423,1935.18Zm-24.466,7.66a3.87,3.87,0,1,0,3.871,3.87A3.869,3.869,0,0,0,611.957,1942.84Zm20.329,0a3.87,3.87,0,1,0,3.871,3.87A3.869,3.869,0,0,0,632.286,1942.84Z" transform="translate(-592.156 -1907.81)"/>
  <path id="carrot" class="cls-2" d="M641,2277.9a1.2,1.2,0,0,0,.48-2.15c-1.452-1.06-3.319-2.1-4.717-1.79l2.9-7.22a1.2,1.2,0,0,0-1.561-1.56l-7.224,2.9c0.312-1.4-.733-3.26-1.789-4.71a1.2,1.2,0,0,0-2.148.48,39.19,39.19,0,0,1-2.634,7.89,12.74,12.74,0,0,1,2.172,1.75l4.873,4.87a13.05,13.05,0,0,1,1.758,2.17A38.959,38.959,0,0,1,641,2277.9Zm-11.27,2.09-4.872-4.88a10.734,10.734,0,0,0-16.946,2.34l-5.352,9.51,5.808,9.57-8.347-5.06-11.773,20.94a3.081,3.081,0,0,0,2.658,4.59,3.147,3.147,0,0,0,1.518-.41l9.151-5.14-3.072-5.7,6.745,3.64,18.806-10.57-5.161-9.01,10.279,5.89A10.749,10.749,0,0,0,629.73,2279.99Z" transform="translate(-587.844 -2262.88)"/>
</svg>
